ffmpeg version N-101030-g129bab5c7e-ge0fd35d867+2 Copyright (c) 2000-2021 the FFmpeg developers
  built with gcc 10.2.0 (Rev6, Built by MSYS2 project)
  configuration:  --pkg-config=pkgconf --cc='ccache gcc' --cxx='ccache g++' --disable-autodetect --enable-amf --enable-bzlib --enable-cuda --enable-cuvid --enable-d3d11va --enable-dxva2 --enable-iconv --enable-lzma --enable-nvenc --enable-zlib --enable-sdl2 --enable-ffnvcodec --enable-nvdec --enable-cuda-llvm --enable-libmp3lame --enable-libopus --enable-libvorbis --enable-libvpx --enable-libx264 --enable-libx265 --enable-libdav1d --enable-libaom --disable-debug --enable-fontconfig --enable-libass --enable-libbluray --enable-libfreetype --enable-libmfx --enable-libmysofa --enable-libopencore-amrnb --enable-libopencore-amrwb --enable-libopenjpeg --enable-libsnappy --enable-libsoxr --enable-libspeex --enable-libtheora --enable-libtwolame --enable-libvidstab --enable-libvo-amrwbenc --enable-libwebp --enable-libxml2 --enable-libzimg --enable-libshine --enable-gpl --enable-avisynth --enable-libxvid --enable-libopenmpt --enable-version3 --enable-libsrt --enable-libgsm --enable-libvmaf --enable-libsvtav1 --enable-librtmp --enable-mbedtls --extra-cflags=-DLIBTWOLAME_STATIC --extra-libs=-lstdc++ --extra-cflags=-DLIBXML_STATIC --extra-libs=-liconv --disable-w32threads
  libavutil      56. 64.100 / 56. 64.100
  libavcodec     58.122.100 / 58.122.100
  libavformat    58. 67.100 / 58. 67.100
  libavdevice    58. 11.103 / 58. 11.103
  libavfilter     7.103.100 /  7.103.100
  libswscale      5.  8.100 /  5.  8.100
  libswresample   3.  8.100 /  3.  8.100
  libpostproc    55.  8.100 / 55.  8.100
Splitting the commandline.
Reading option '-v' ... matched as option 'v' (set logging level) with argument 'debug'.
Reading option '-nostdin' ... matched as option 'stdin' (enable or disable interaction on standard input) with argument 0.
Reading option '-progress' ... matched as option 'progress' (write program-readable progress information) with argument 'C:/Users/Acer/AppData/Local/Temp/KritaFFmpegProgress.oYgcub'.
Reading option '-r' ... matched as option 'r' (set frame rate (Hz value, fraction or abbreviation)) with argument '24'.
Reading option '-start_number' ... matched as AVOption 'start_number' with argument '0'.
Reading option '-i' ... matched as input url with argument 'D:/Peliprojektit/Projektit/Baltic_Loop/Krita_animaatiot/Koskenkyla/frame%04d.png'.
Reading option '-crf' ... matched as AVOption 'crf' with argument '23'.
Reading option '-preset' ... matched as AVOption 'preset' with argument 'medium'.
Reading option '-profile:v' ... matched as option 'profile' (set profile) with argument 'baseline'.
Reading option '-pix_fmt' ... matched as option 'pix_fmt' (set pixel format) with argument 'yuv420p'.
Reading option '-y' ... matched as option 'y' (overwrite output files) with argument '1'.
Reading option 'D:/Peliprojektit/Projektit/Baltic_Loop/Krita_animaatiot/Koskenkyla/Koskenkyla.mp4' ... matched as output url.
Finished splitting the commandline.
Parsing a group of options: global .
Applying option v (set logging level) with argument debug.
Applying option nostdin (enable or disable interaction on standard input) with argument 0.
Applying option progress (write program-readable progress information) with argument C:/Users/Acer/AppData/Local/Temp/KritaFFmpegProgress.oYgcub.
[file @ 000002460bc4dcc0] Setting default whitelist 'file,crypto,data'
Applying option y (overwrite output files) with argument 1.
Successfully parsed a group of options.
Parsing a group of options: input url D:/Peliprojektit/Projektit/Baltic_Loop/Krita_animaatiot/Koskenkyla/frame%04d.png.
Applying option r (set frame rate (Hz value, fraction or abbreviation)) with argument 24.
Successfully parsed a group of options.
Opening an input file: D:/Peliprojektit/Projektit/Baltic_Loop/Krita_animaatiot/Koskenkyla/frame%04d.png.
[image2 @ 000002460bc8dfc0] Opening 'D:/Peliprojektit/Projektit/Baltic_Loop/Krita_animaatiot/Koskenkyla/frame0000.png' for reading
[file @ 000002460bc92ac0] Setting default whitelist 'file,crypto,data'
[AVIOContext @ 000002460bc9ac80] Statistics: 1120980 bytes read, 0 seeks
[image2 @ 000002460bc8dfc0] Opening 'D:/Peliprojektit/Projektit/Baltic_Loop/Krita_animaatiot/Koskenkyla/frame0001.png' for reading
[file @ 000002460bc990c0] Setting default whitelist 'file,crypto,data'
[AVIOContext @ 000002460bc99240] Statistics: 1121182 bytes read, 0 seeks
[image2 @ 000002460bc8dfc0] Opening 'D:/Peliprojektit/Projektit/Baltic_Loop/Krita_animaatiot/Koskenkyla/frame0002.png' for reading
[file @ 000002460bc99180] Setting default whitelist 'file,crypto,data'
[AVIOContext @ 000002460bca8200] Statistics: 1121179 bytes read, 0 seeks
[image2 @ 000002460bc8dfc0] Opening 'D:/Peliprojektit/Projektit/Baltic_Loop/Krita_animaatiot/Koskenkyla/frame0003.png' for reading
[file @ 000002460bca83c0] Setting default whitelist 'file,crypto,data'
[AVIOContext @ 000002460bca8200] Statistics: 1121076 bytes read, 0 seeks
[image2 @ 000002460bc8dfc0] Opening 'D:/Peliprojektit/Projektit/Baltic_Loop/Krita_animaatiot/Koskenkyla/frame0004.png' for reading
[file @ 000002460bca83c0] Setting default whitelist 'file,crypto,data'
[AVIOContext @ 000002460bca8200] Statistics: 1120953 bytes read, 0 seeks
[image2 @ 000002460bc8dfc0] Probe buffer size limit of 5000000 bytes reached
Input #0, image2, from 'D:/Peliprojektit/Projektit/Baltic_Loop/Krita_animaatiot/Koskenkyla/frame%04d.png':
  Duration: 00:00:05.16, start: 0.000000, bitrate: N/A
  Stream #0:0, 5, 1/25: Video: png, 1 reference frame, rgba(pc), 1920x1080 [SAR 2834:2834 DAR 16:9], 0/1, 25 fps, 25 tbr, 25 tbn, 25 tbc
Successfully opened the file.
Parsing a group of options: output url D:/Peliprojektit/Projektit/Baltic_Loop/Krita_animaatiot/Koskenkyla/Koskenkyla.mp4.
Applying option profile:v (set profile) with argument baseline.
Applying option pix_fmt (set pixel format) with argument yuv420p.
Successfully parsed a group of options.
Opening an output file: D:/Peliprojektit/Projektit/Baltic_Loop/Krita_animaatiot/Koskenkyla/Koskenkyla.mp4.
[file @ 000002460bc925c0] Setting default whitelist 'file,crypto,data'
Successfully opened the file.
detected 8 logical cores
Stream mapping:
  Stream #0:0 -> #0:0 (png (native) -> h264 (libx264))
cur_dts is invalid st:0 (0) [init:0 i_done:0 finish:0] (this is harmless if it occurs once at the start per stream)
    Last message repeated 5 times
[image2 @ 000002460bc8dfc0] Opening 'D:/Peliprojektit/Projektit/Baltic_Loop/Krita_animaatiot/Koskenkyla/frame0005.png' for reading
[file @ 000002460bc99200] Setting default whitelist 'file,crypto,data'
[AVIOContext @ 000002460bca82c0] Statistics: 1121058 bytes read, 0 seeks
cur_dts is invalid st:0 (0) [init:0 i_done:0 finish:0] (this is harmless if it occurs once at the start per stream)
[image2 @ 000002460bc8dfc0] Opening 'D:/Peliprojektit/Projektit/Baltic_Loop/Krita_animaatiot/Koskenkyla/frame0006.png' for reading
[file @ 000002460bc99200] Setting default whitelist 'file,crypto,data'
[AVIOContext @ 000002460bca82c0] Statistics: 1121012 bytes read, 0 seeks
cur_dts is invalid st:0 (0) [init:0 i_done:0 finish:0] (this is harmless if it occurs once at the start per stream)
[image2 @ 000002460bc8dfc0] Opening 'D:/Peliprojektit/Projektit/Baltic_Loop/Krita_animaatiot/Koskenkyla/frame0007.png' for reading
[file @ 000002460bc99200] Setting default whitelist 'file,crypto,data'
[AVIOContext @ 000002460bca82c0] Statistics: 1121082 bytes read, 0 seeks
cur_dts is invalid st:0 (0) [init:0 i_done:0 finish:0] (this is harmless if it occurs once at the start per stream)
[image2 @ 000002460bc8dfc0] Opening 'D:/Peliprojektit/Projektit/Baltic_Loop/Krita_animaatiot/Koskenkyla/frame0008.png' for reading
[file @ 000002460bc99200] Setting default whitelist 'file,crypto,data'
[AVIOContext @ 000002460bca82c0] Statistics: 1121148 bytes read, 0 seeks
[graph 0 input from stream 0:0 @ 000002460bcec8c0] Setting 'video_size' to value '1920x1080'
[graph 0 input from stream 0:0 @ 000002460bcec8c0] Setting 'pix_fmt' to value '26'
[graph 0 input from stream 0:0 @ 000002460bcec8c0] Setting 'time_base' to value '1/24'
[graph 0 input from stream 0:0 @ 000002460bcec8c0] Setting 'pixel_aspect' to value '2834/2834'
[graph 0 input from stream 0:0 @ 000002460bcec8c0] Setting 'frame_rate' to value '24/1'
[graph 0 input from stream 0:0 @ 000002460bcec8c0] w:1920 h:1080 pixfmt:rgba tb:1/24 fr:24/1 sar:2834/2834
[format @ 000002460bcecd00] Setting 'pix_fmts' to value 'yuv420p'
[auto_scaler_0 @ 000002460bced0c0] Setting 'flags' to value 'bicubic'
[auto_scaler_0 @ 000002460bced0c0] w:iw h:ih flags:'bicubic' interl:0
[format @ 000002460bcecd00] auto-inserting filter 'auto_scaler_0' between the filter 'Parsed_null_0' and the filter 'format'
[AVFilterGraph @ 000002460d5ebc00] query_formats: 4 queried, 2 merged, 1 already done, 0 delayed
[auto_scaler_0 @ 000002460bced0c0] w:1920 h:1080 fmt:rgba sar:2834/2834 -> w:1920 h:1080 fmt:yuv420p sar:1/1 flags:0x4
[libx264 @ 000002460bc91500] using mv_range_thread = 40
[libx264 @ 000002460bc91500] using SAR=1/1
[libx264 @ 000002460bc91500] using cpu capabilities: MMX2 SSE2Fast SSSE3 SSE4.2 AVX FMA3 BMI2 AVX2
[libx264 @ 000002460bc91500] profile Constrained Baseline, level 4.0, 4:2:0, 8-bit
[libx264 @ 000002460bc91500] 264 - core 161 r3044 a7e2c6a - H.264/MPEG-4 AVC codec - Copyleft 2003-2021 - http://www.videolan.org/x264.html - options: cabac=0 ref=3 deblock=1:0:0 analyse=0x1:0x111 me=hex subme=7 psy=1 psy_rd=1.00:0.00 mixed_ref=1 me_range=16 chroma_me=1 trellis=1 8x8dct=0 cqm=0 deadzone=21,11 fast_pskip=1 chroma_qp_offset=-2 threads=12 lookahead_threads=2 sliced_threads=0 nr=0 decimate=1 interlaced=0 bluray_compat=0 constrained_intra=0 bframes=0 weightp=0 keyint=250 keyint_min=24 scenecut=40 intra_refresh=0 rc_lookahead=40 rc=crf mbtree=1 crf=23.0 qcomp=0.60 qpmin=0 qpmax=69 qpstep=4 ip_ratio=1.40 aq=1:1.00
Output #0, mp4, to 'D:/Peliprojektit/Projektit/Baltic_Loop/Krita_animaatiot/Koskenkyla/Koskenkyla.mp4':
  Metadata:
    encoder         : Lavf58.67.100
  Stream #0:0, 0, 1/12288: Video: h264, 1 reference frame (avc1 / 0x31637661), yuv420p(tv, progressive), 1920x1080 (0x0) [SAR 1:1 DAR 16:9], 0/1, q=2-31, 24 fps, 12288 tbn
    Metadata:
      encoder         : Lavc58.122.100 libx264
    Side data:
      cpb: bitrate max/min/avg: 0/0/0 buffer size: 0 vbv_delay: N/A
Clipping frame in rate conversion by 0.000008
frame=    1 fps=0.0 q=0.0 size=       0kB time=00:00:00.00 bitrate=N/A speed=   0x    cur_dts is invalid st:0 (0) [init:1 i_done:0 finish:0] (this is harmless if it occurs once at the start per stream)
[image2 @ 000002460bc8dfc0] Opening 'D:/Peliprojektit/Projektit/Baltic_Loop/Krita_animaatiot/Koskenkyla/frame0009.png' for reading
[file @ 000002460d6aadc0] Setting default whitelist 'file,crypto,data'
[AVIOContext @ 0000024615d70c00] Statistics: 1121238 bytes read, 0 seeks
cur_dts is invalid st:0 (0) [init:1 i_done:0 finish:0] (this is harmless if it occurs once at the start per stream)
[image2 @ 000002460bc8dfc0] Opening 'D:/Peliprojektit/Projektit/Baltic_Loop/Krita_animaatiot/Koskenkyla/frame0010.png' for reading
[file @ 000002460d6ab3c0] Setting default whitelist 'file,crypto,data'
[AVIOContext @ 000002460d602740] Statistics: 1121300 bytes read, 0 seeks
cur_dts is invalid st:0 (0) [init:1 i_done:0 finish:0] (this is harmless if it occurs once at the start per stream)
[image2 @ 000002460bc8dfc0] Opening 'D:/Peliprojektit/Projektit/Baltic_Loop/Krita_animaatiot/Koskenkyla/frame0011.png' for reading
[file @ 000002460d6aaec0] Setting default whitelist 'file,crypto,data'
[AVIOContext @ 0000024615d7a800] Statistics: 1121336 bytes read, 0 seeks
cur_dts is invalid st:0 (0) [init:1 i_done:0 finish:0] (this is harmless if it occurs once at the start per stream)
[image2 @ 000002460bc8dfc0] Opening 'D:/Peliprojektit/Projektit/Baltic_Loop/Krita_animaatiot/Koskenkyla/frame0012.png' for reading
[file @ 000002460d6aa6c0] Setting default whitelist 'file,crypto,data'
[AVIOContext @ 000002460bc99300] Statistics: 1121270 bytes read, 0 seeks
cur_dts is invalid st:0 (0) [init:1 i_done:0 finish:0] (this is harmless if it occurs once at the start per stream)
[image2 @ 000002460bc8dfc0] Opening 'D:/Peliprojektit/Projektit/Baltic_Loop/Krita_animaatiot/Koskenkyla/frame0013.png' for reading
[file @ 000002460d6aafc0] Setting default whitelist 'file,crypto,data'
[AVIOContext @ 0000024615e83d00] Statistics: 1121170 bytes read, 0 seeks
cur_dts is invalid st:0 (0) [init:1 i_done:0 finish:0] (this is harmless if it occurs once at the start per stream)
[image2 @ 000002460bc8dfc0] Opening 'D:/Peliprojektit/Projektit/Baltic_Loop/Krita_animaatiot/Koskenkyla/frame0014.png' for reading
[file @ 000002460d6aa8c0] Setting default whitelist 'file,crypto,data'
[AVIOContext @ 0000024615e83d00] Statistics: 1121224 bytes read, 0 seeks
cur_dts is invalid st:0 (0) [init:1 i_done:0 finish:0] (this is harmless if it occurs once at the start per stream)
[image2 @ 000002460bc8dfc0] Opening 'D:/Peliprojektit/Projektit/Baltic_Loop/Krita_animaatiot/Koskenkyla/frame0015.png' for reading
[file @ 000002460d6ac1c0] Setting default whitelist 'file,crypto,data'
[AVIOContext @ 0000024615e83d00] Statistics: 1121179 bytes read, 0 seeks
cur_dts is invalid st:0 (0) [init:1 i_done:0 finish:0] (this is harmless if it occurs once at the start per stream)
[image2 @ 000002460bc8dfc0] Opening 'D:/Peliprojektit/Projektit/Baltic_Loop/Krita_animaatiot/Koskenkyla/frame0016.png' for reading
[file @ 000002460d6ab2c0] Setting default whitelist 'file,crypto,data'
[AVIOContext @ 0000024615e83d00] Statistics: 1121092 bytes read, 0 seeks
cur_dts is invalid st:0 (0) [init:1 i_done:0 finish:0] (this is harmless if it occurs once at the start per stream)
[image2 @ 000002460bc8dfc0] Opening 'D:/Peliprojektit/Projektit/Baltic_Loop/Krita_animaatiot/Koskenkyla/frame0017.png' for reading
[file @ 000002460d6ac0c0] Setting default whitelist 'file,crypto,data'
[AVIOContext @ 0000024615e83d00] Statistics: 1121074 bytes read, 0 seeks
cur_dts is invalid st:0 (0) [init:1 i_done:0 finish:0] (this is harmless if it occurs once at the start per stream)
[image2 @ 000002460bc8dfc0] Opening 'D:/Peliprojektit/Projektit/Baltic_Loop/Krita_animaatiot/Koskenkyla/frame0018.png' for reading
[file @ 000002460d6ab5c0] Setting default whitelist 'file,crypto,data'
[AVIOContext @ 0000024615e83d00] Statistics: 1120961 bytes read, 0 seeks
cur_dts is invalid st:0 (0) [init:1 i_done:0 finish:0] (this is harmless if it occurs once at the start per stream)
[image2 @ 000002460bc8dfc0] Opening 'D:/Peliprojektit/Projektit/Baltic_Loop/Krita_animaatiot/Koskenkyla/frame0019.png' for reading
[file @ 000002460d6abcc0] Setting default whitelist 'file,crypto,data'
[AVIOContext @ 0000024615e83d00] Statistics: 1120773 bytes read, 0 seeks
cur_dts is invalid st:0 (0) [init:1 i_done:0 finish:0] (this is harmless if it occurs once at the start per stream)
[image2 @ 000002460bc8dfc0] Opening 'D:/Peliprojektit/Projektit/Baltic_Loop/Krita_animaatiot/Koskenkyla/frame0020.png' for reading
[file @ 000002460d6abcc0] Setting default whitelist 'file,crypto,data'
[AVIOContext @ 0000024615e83d00] Statistics: 1120765 bytes read, 0 seeks
cur_dts is invalid st:0 (0) [init:1 i_done:0 finish:0] (this is harmless if it occurs once at the start per stream)
[image2 @ 000002460bc8dfc0] Opening 'D:/Peliprojektit/Projektit/Baltic_Loop/Krita_animaatiot/Koskenkyla/frame0021.png' for reading
[file @ 000002460d6ab8c0] Setting default whitelist 'file,crypto,data'
[AVIOContext @ 0000024615e83d00] Statistics: 1120929 bytes read, 0 seeks
cur_dts is invalid st:0 (0) [init:1 i_done:0 finish:0] (this is harmless if it occurs once at the start per stream)
[image2 @ 000002460bc8dfc0] Opening 'D:/Peliprojektit/Projektit/Baltic_Loop/Krita_animaatiot/Koskenkyla/frame0022.png' for reading
[file @ 000002460d6ab3c0] Setting default whitelist 'file,crypto,data'
[AVIOContext @ 0000024615e83d00] Statistics: 1120730 bytes read, 0 seeks
cur_dts is invalid st:0 (0) [init:1 i_done:0 finish:0] (this is harmless if it occurs once at the start per stream)
[image2 @ 000002460bc8dfc0] Opening 'D:/Peliprojektit/Projektit/Baltic_Loop/Krita_animaatiot/Koskenkyla/frame0023.png' for reading
[file @ 000002460d6aadc0] Setting default whitelist 'file,crypto,data'
[AVIOContext @ 0000024615e83d00] Statistics: 1120739 bytes read, 0 seeks
cur_dts is invalid st:0 (0) [init:1 i_done:0 finish:0] (this is harmless if it occurs once at the start per stream)
[image2 @ 000002460bc8dfc0] Opening 'D:/Peliprojektit/Projektit/Baltic_Loop/Krita_animaatiot/Koskenkyla/frame0024.png' for reading
[file @ 000002460d6aaac0] Setting default whitelist 'file,crypto,data'
[AVIOContext @ 0000024615e83d00] Statistics: 1120611 bytes read, 0 seeks
cur_dts is invalid st:0 (0) [init:1 i_done:0 finish:0] (this is harmless if it occurs once at the start per stream)
[image2 @ 000002460bc8dfc0] Opening 'D:/Peliprojektit/Projektit/Baltic_Loop/Krita_animaatiot/Koskenkyla/frame0025.png' for reading
[file @ 000002460d6ab9c0] Setting default whitelist 'file,crypto,data'
[AVIOContext @ 0000024615e83d00] Statistics: 1120411 bytes read, 0 seeks
cur_dts is invalid st:0 (0) [init:1 i_done:0 finish:0] (this is harmless if it occurs once at the start per stream)
[image2 @ 000002460bc8dfc0] Opening 'D:/Peliprojektit/Projektit/Baltic_Loop/Krita_animaatiot/Koskenkyla/frame0026.png' for reading
[file @ 000002460d6aa9c0] Setting default whitelist 'file,crypto,data'
[AVIOContext @ 0000024615e83d00] Statistics: 1120435 bytes read, 0 seeks
cur_dts is invalid st:0 (0) [init:1 i_done:0 finish:0] (this is harmless if it occurs once at the start per stream)
[image2 @ 000002460bc8dfc0] Opening 'D:/Peliprojektit/Projektit/Baltic_Loop/Krita_animaatiot/Koskenkyla/frame0027.png' for reading
[file @ 000002460d6aabc0] Setting default whitelist 'file,crypto,data'
[AVIOContext @ 0000024615e83d00] Statistics: 1120270 bytes read, 0 seeks
cur_dts is invalid st:0 (0) [init:1 i_done:0 finish:0] (this is harmless if it occurs once at the start per stream)
[image2 @ 000002460bc8dfc0] Opening 'D:/Peliprojektit/Projektit/Baltic_Loop/Krita_animaatiot/Koskenkyla/frame0028.png' for reading
[file @ 000002460d6ac1c0] Setting default whitelist 'file,crypto,data'
[AVIOContext @ 0000024615e83d00] Statistics: 1120243 bytes read, 0 seeks
cur_dts is invalid st:0 (0) [init:1 i_done:0 finish:0] (this is harmless if it occurs once at the start per stream)
[image2 @ 000002460bc8dfc0] Opening 'D:/Peliprojektit/Projektit/Baltic_Loop/Krita_animaatiot/Koskenkyla/frame0029.png' for reading
[file @ 000002460d6ab2c0] Setting default whitelist 'file,crypto,data'
[AVIOContext @ 0000024615e83d00] Statistics: 1120166 bytes read, 0 seeks
cur_dts is invalid st:0 (0) [init:1 i_done:0 finish:0] (this is harmless if it occurs once at the start per stream)
[image2 @ 000002460bc8dfc0] Opening 'D:/Peliprojektit/Projektit/Baltic_Loop/Krita_animaatiot/Koskenkyla/frame0030.png' for reading
[file @ 000002460d6ab3c0] Setting default whitelist 'file,crypto,data'
[AVIOContext @ 0000024615e83d00] Statistics: 1120284 bytes read, 0 seeks
cur_dts is invalid st:0 (0) [init:1 i_done:0 finish:0] (this is harmless if it occurs once at the start per stream)
[image2 @ 000002460bc8dfc0] Opening 'D:/Peliprojektit/Projektit/Baltic_Loop/Krita_animaatiot/Koskenkyla/frame0031.png' for reading
[file @ 000002460d6aa8c0] Setting default whitelist 'file,crypto,data'
[AVIOContext @ 0000024615e83d00] Statistics: 1120006 bytes read, 0 seeks
cur_dts is invalid st:0 (0) [init:1 i_done:0 finish:0] (this is harmless if it occurs once at the start per stream)
[image2 @ 000002460bc8dfc0] Opening 'D:/Peliprojektit/Projektit/Baltic_Loop/Krita_animaatiot/Koskenkyla/frame0032.png' for reading
[file @ 000002460d6abdc0] Setting default whitelist 'file,crypto,data'
[AVIOContext @ 0000024615e83d00] Statistics: 1120295 bytes read, 0 seeks
cur_dts is invalid st:0 (0) [init:1 i_done:0 finish:0] (this is harmless if it occurs once at the start per stream)
[image2 @ 000002460bc8dfc0] Opening 'D:/Peliprojektit/Projektit/Baltic_Loop/Krita_animaatiot/Koskenkyla/frame0033.png' for reading
[file @ 000002460d6ac2c0] Setting default whitelist 'file,crypto,data'
[AVIOContext @ 0000024615e83d00] Statistics: 1120338 bytes read, 0 seeks
cur_dts is invalid st:0 (0) [init:1 i_done:0 finish:0] (this is harmless if it occurs once at the start per stream)
[image2 @ 000002460bc8dfc0] Opening 'D:/Peliprojektit/Projektit/Baltic_Loop/Krita_animaatiot/Koskenkyla/frame0034.png' for reading
[file @ 000002460d6aaac0] Setting default whitelist 'file,crypto,data'
[AVIOContext @ 0000024615e83d00] Statistics: 1120226 bytes read, 0 seeks
cur_dts is invalid st:0 (0) [init:1 i_done:0 finish:0] (this is harmless if it occurs once at the start per stream)
[image2 @ 000002460bc8dfc0] Opening 'D:/Peliprojektit/Projektit/Baltic_Loop/Krita_animaatiot/Koskenkyla/frame0035.png' for reading
[file @ 000002460d6ab0c0] Setting default whitelist 'file,crypto,data'
[AVIOContext @ 0000024615e83d00] Statistics: 1120008 bytes read, 0 seeks
cur_dts is invalid st:0 (0) [init:1 i_done:0 finish:0] (this is harmless if it occurs once at the start per stream)
[image2 @ 000002460bc8dfc0] Opening 'D:/Peliprojektit/Projektit/Baltic_Loop/Krita_animaatiot/Koskenkyla/frame0036.png' for reading
[file @ 000002460d6ab7c0] Setting default whitelist 'file,crypto,data'
[AVIOContext @ 0000024615e83d00] Statistics: 1119928 bytes read, 0 seeks
cur_dts is invalid st:0 (0) [init:1 i_done:0 finish:0] (this is harmless if it occurs once at the start per stream)
[image2 @ 000002460bc8dfc0] Opening 'D:/Peliprojektit/Projektit/Baltic_Loop/Krita_animaatiot/Koskenkyla/frame0037.png' for reading
[file @ 000002460d6abec0] Setting default whitelist 'file,crypto,data'
[AVIOContext @ 0000024615e83d00] Statistics: 1120088 bytes read, 0 seeks
cur_dts is invalid st:0 (0) [init:1 i_done:0 finish:0] (this is harmless if it occurs once at the start per stream)
[image2 @ 000002460bc8dfc0] Opening 'D:/Peliprojektit/Projektit/Baltic_Loop/Krita_animaatiot/Koskenkyla/frame0038.png' for reading
[file @ 000002460d6abec0] Setting default whitelist 'file,crypto,data'
[AVIOContext @ 0000024615e83d00] Statistics: 1119841 bytes read, 0 seeks
cur_dts is invalid st:0 (0) [init:1 i_done:0 finish:0] (this is harmless if it occurs once at the start per stream)
[image2 @ 000002460bc8dfc0] Opening 'D:/Peliprojektit/Projektit/Baltic_Loop/Krita_animaatiot/Koskenkyla/frame0039.png' for reading
[file @ 000002460d6aadc0] Setting default whitelist 'file,crypto,data'
[AVIOContext @ 0000024615e83d00] Statistics: 1119746 bytes read, 0 seeks
cur_dts is invalid st:0 (0) [init:1 i_done:0 finish:0] (this is harmless if it occurs once at the start per stream)
[image2 @ 000002460bc8dfc0] Opening 'D:/Peliprojektit/Projektit/Baltic_Loop/Krita_animaatiot/Koskenkyla/frame0040.png' for reading
[file @ 000002460d6ab3c0] Setting default whitelist 'file,crypto,data'
[AVIOContext @ 0000024615e83d00] Statistics: 1119608 bytes read, 0 seeks
cur_dts is invalid st:0 (0) [init:1 i_done:0 finish:0] (this is harmless if it occurs once at the start per stream)
[image2 @ 000002460bc8dfc0] Opening 'D:/Peliprojektit/Projektit/Baltic_Loop/Krita_animaatiot/Koskenkyla/frame0041.png' for reading
[file @ 000002460d6aaec0] Setting default whitelist 'file,crypto,data'
[AVIOContext @ 0000024615e83d00] Statistics: 1119464 bytes read, 0 seeks
frame=   34 fps=0.0 q=0.0 size=       0kB time=00:00:00.00 bitrate=N/A speed=   0x    cur_dts is invalid st:0 (0) [init:1 i_done:0 finish:0] (this is harmless if it occurs once at the start per stream)
[image2 @ 000002460bc8dfc0] Opening 'D:/Peliprojektit/Projektit/Baltic_Loop/Krita_animaatiot/Koskenkyla/frame0042.png' for reading
[file @ 000002460d6abec0] Setting default whitelist 'file,crypto,data'
[AVIOContext @ 0000024615e83d00] Statistics: 1119374 bytes read, 0 seeks
cur_dts is invalid st:0 (0) [init:1 i_done:0 finish:0] (this is harmless if it occurs once at the start per stream)
[image2 @ 000002460bc8dfc0] Opening 'D:/Peliprojektit/Projektit/Baltic_Loop/Krita_animaatiot/Koskenkyla/frame0043.png' for reading
[file @ 000002460d6aa9c0] Setting default whitelist 'file,crypto,data'
[AVIOContext @ 0000024615e83d00] Statistics: 1119273 bytes read, 0 seeks
cur_dts is invalid st:0 (0) [init:1 i_done:0 finish:0] (this is harmless if it occurs once at the start per stream)
[image2 @ 000002460bc8dfc0] Opening 'D:/Peliprojektit/Projektit/Baltic_Loop/Krita_animaatiot/Koskenkyla/frame0044.png' for reading
[file @ 000002460d6abec0] Setting default whitelist 'file,crypto,data'
[AVIOContext @ 0000024615e83d00] Statistics: 1119201 bytes read, 0 seeks
cur_dts is invalid st:0 (0) [init:1 i_done:0 finish:0] (this is harmless if it occurs once at the start per stream)
[image2 @ 000002460bc8dfc0] Opening 'D:/Peliprojektit/Projektit/Baltic_Loop/Krita_animaatiot/Koskenkyla/frame0045.png' for reading
[file @ 000002460d6abbc0] Setting default whitelist 'file,crypto,data'
[AVIOContext @ 0000024615e83d00] Statistics: 1119135 bytes read, 0 seeks
cur_dts is invalid st:0 (0) [init:1 i_done:0 finish:0] (this is harmless if it occurs once at the start per stream)
[image2 @ 000002460bc8dfc0] Opening 'D:/Peliprojektit/Projektit/Baltic_Loop/Krita_animaatiot/Koskenkyla/frame0046.png' for reading
[file @ 000002460d6aabc0] Setting default whitelist 'file,crypto,data'
[AVIOContext @ 0000024615e83d00] Statistics: 1119008 bytes read, 0 seeks
cur_dts is invalid st:0 (0) [init:1 i_done:0 finish:0] (this is harmless if it occurs once at the start per stream)
[image2 @ 000002460bc8dfc0] Opening 'D:/Peliprojektit/Projektit/Baltic_Loop/Krita_animaatiot/Koskenkyla/frame0047.png' for reading
[file @ 000002460d6abec0] Setting default whitelist 'file,crypto,data'
[AVIOContext @ 0000024615e83d00] Statistics: 1118951 bytes read, 0 seeks
cur_dts is invalid st:0 (0) [init:1 i_done:0 finish:0] (this is harmless if it occurs once at the start per stream)
[image2 @ 000002460bc8dfc0] Opening 'D:/Peliprojektit/Projektit/Baltic_Loop/Krita_animaatiot/Koskenkyla/frame0048.png' for reading
[file @ 000002460d6aa5c0] Setting default whitelist 'file,crypto,data'
[AVIOContext @ 0000024615e83d00] Statistics: 1118802 bytes read, 0 seeks
cur_dts is invalid st:0 (0) [init:1 i_done:0 finish:0] (this is harmless if it occurs once at the start per stream)
[image2 @ 000002460bc8dfc0] Opening 'D:/Peliprojektit/Projektit/Baltic_Loop/Krita_animaatiot/Koskenkyla/frame0049.png' for reading
[file @ 000002460d6ab1c0] Setting default whitelist 'file,crypto,data'
[AVIOContext @ 0000024615e83d00] Statistics: 1118598 bytes read, 0 seeks
cur_dts is invalid st:0 (0) [init:1 i_done:0 finish:0] (this is harmless if it occurs once at the start per stream)
[image2 @ 000002460bc8dfc0] Opening 'D:/Peliprojektit/Projektit/Baltic_Loop/Krita_animaatiot/Koskenkyla/frame0050.png' for reading
[file @ 000002460d6aa4c0] Setting default whitelist 'file,crypto,data'
[AVIOContext @ 0000024615e83d00] Statistics: 1118715 bytes read, 0 seeks
cur_dts is invalid st:0 (0) [init:1 i_done:0 finish:0] (this is harmless if it occurs once at the start per stream)
[image2 @ 000002460bc8dfc0] Opening 'D:/Peliprojektit/Projektit/Baltic_Loop/Krita_animaatiot/Koskenkyla/frame0051.png' for reading
[file @ 000002460d6aa5c0] Setting default whitelist 'file,crypto,data'
[AVIOContext @ 0000024615e83d00] Statistics: 1118665 bytes read, 0 seeks
cur_dts is invalid st:0 (0) [init:1 i_done:0 finish:0] (this is harmless if it occurs once at the start per stream)
[image2 @ 000002460bc8dfc0] Opening 'D:/Peliprojektit/Projektit/Baltic_Loop/Krita_animaatiot/Koskenkyla/frame0052.png' for reading
[file @ 000002460d6abbc0] Setting default whitelist 'file,crypto,data'
[AVIOContext @ 0000024615e83d00] Statistics: 1118655 bytes read, 0 seeks
cur_dts is invalid st:0 (0) [init:1 i_done:0 finish:0] (this is harmless if it occurs once at the start per stream)
[image2 @ 000002460bc8dfc0] Opening 'D:/Peliprojektit/Projektit/Baltic_Loop/Krita_animaatiot/Koskenkyla/frame0053.png' for reading
[file @ 000002460d6aabc0] Setting default whitelist 'file,crypto,data'
[AVIOContext @ 0000024615e83d00] Statistics: 1118720 bytes read, 0 seeks
cur_dts is invalid st:0 (0) [init:1 i_done:0 finish:0] (this is harmless if it occurs once at the start per stream)
[image2 @ 000002460bc8dfc0] Opening 'D:/Peliprojektit/Projektit/Baltic_Loop/Krita_animaatiot/Koskenkyla/frame0054.png' for reading
[file @ 000002460d6abbc0] Setting default whitelist 'file,crypto,data'
[AVIOContext @ 0000024615e83d00] Statistics: 1118466 bytes read, 0 seeks
cur_dts is invalid st:0 (0) [init:1 i_done:0 finish:0] (this is harmless if it occurs once at the start per stream)
[image2 @ 000002460bc8dfc0] Opening 'D:/Peliprojektit/Projektit/Baltic_Loop/Krita_animaatiot/Koskenkyla/frame0055.png' for reading
[file @ 000002460d6ab6c0] Setting default whitelist 'file,crypto,data'
[AVIOContext @ 0000024615e83d00] Statistics: 1118551 bytes read, 0 seeks
cur_dts is invalid st:0 (0) [init:1 i_done:0 finish:0] (this is harmless if it occurs once at the start per stream)
[image2 @ 000002460bc8dfc0] Opening 'D:/Peliprojektit/Projektit/Baltic_Loop/Krita_animaatiot/Koskenkyla/frame0056.png' for reading
[file @ 000002460d6ab3c0] Setting default whitelist 'file,crypto,data'
[AVIOContext @ 0000024615e83d00] Statistics: 1118624 bytes read, 0 seeks
cur_dts is invalid st:0 (0) [init:1 i_done:0 finish:0] (this is harmless if it occurs once at the start per stream)
[image2 @ 000002460bc8dfc0] Opening 'D:/Peliprojektit/Projektit/Baltic_Loop/Krita_animaatiot/Koskenkyla/frame0057.png' for reading
[file @ 000002460d6aa8c0] Setting default whitelist 'file,crypto,data'
[AVIOContext @ 0000024615e83d00] Statistics: 1118515 bytes read, 0 seeks
cur_dts is invalid st:0 (0) [init:1 i_done:0 finish:0] (this is harmless if it occurs once at the start per stream)
[image2 @ 000002460bc8dfc0] Opening 'D:/Peliprojektit/Projektit/Baltic_Loop/Krita_animaatiot/Koskenkyla/frame0058.png' for reading
[file @ 000002460d6aa9c0] Setting default whitelist 'file,crypto,data'
[AVIOContext @ 0000024615e83d00] Statistics: 1118375 bytes read, 0 seeks
cur_dts is invalid st:0 (0) [init:1 i_done:0 finish:0] (this is harmless if it occurs once at the start per stream)
[image2 @ 000002460bc8dfc0] Opening 'D:/Peliprojektit/Projektit/Baltic_Loop/Krita_animaatiot/Koskenkyla/frame0059.png' for reading
[file @ 000002460d6ab7c0] Setting default whitelist 'file,crypto,data'
[AVIOContext @ 0000024615e83d00] Statistics: 1118401 bytes read, 0 seeks
cur_dts is invalid st:0 (0) [init:1 i_done:0 finish:0] (this is harmless if it occurs once at the start per stream)
[image2 @ 000002460bc8dfc0] Opening 'D:/Peliprojektit/Projektit/Baltic_Loop/Krita_animaatiot/Koskenkyla/frame0060.png' for reading
[file @ 000002460d6ab4c0] Setting default whitelist 'file,crypto,data'
[AVIOContext @ 0000024615e83d00] Statistics: 1118380 bytes read, 0 seeks
cur_dts is invalid st:0 (0) [init:1 i_done:0 finish:0] (this is harmless if it occurs once at the start per stream)
[image2 @ 000002460bc8dfc0] Opening 'D:/Peliprojektit/Projektit/Baltic_Loop/Krita_animaatiot/Koskenkyla/frame0061.png' for reading
[file @ 000002460d6aa5c0] Setting default whitelist 'file,crypto,data'
[AVIOContext @ 0000024615e83d00] Statistics: 1118365 bytes read, 0 seeks
[libx264 @ 000002460bc91500] frame=   0 QP=15.47 NAL=3 Slice:I Poc:0   I:8160 P:0    SKIP:0    size=228090 bytes
[image2 @ 000002460bc8dfc0] Opening 'D:/Peliprojektit/Projektit/Baltic_Loop/Krita_animaatiot/Koskenkyla/frame0062.png' for reading
[file @ 000002460d6aa5c0] Setting default whitelist 'file,crypto,data'
[AVIOContext @ 0000024615e83d00] Statistics: 1118235 bytes read, 0 seeks
[libx264 @ 000002460bc91500] frame=   1 QP=18.75 NAL=2 Slice:P Poc:2   I:4    P:342  SKIP:7814 size=1401 bytes
[image2 @ 000002460bc8dfc0] Opening 'D:/Peliprojektit/Projektit/Baltic_Loop/Krita_animaatiot/Koskenkyla/frame0063.png' for reading
[file @ 000002460d6ab6c0] Setting default whitelist 'file,crypto,data'
[AVIOContext @ 0000024615e83d00] Statistics: 1118245 bytes read, 0 seeks
[libx264 @ 000002460bc91500] frame=   2 QP=18.70 NAL=2 Slice:P Poc:4   I:2    P:181  SKIP:7977 size=772 bytes
[image2 @ 000002460bc8dfc0] Opening 'D:/Peliprojektit/Projektit/Baltic_Loop/Krita_animaatiot/Koskenkyla/frame0064.png' for reading
[file @ 000002460d6aabc0] Setting default whitelist 'file,crypto,data'
[AVIOContext @ 0000024615e83d00] Statistics: 1118205 bytes read, 0 seeks
[libx264 @ 000002460bc91500] frame=   3 QP=18.49 NAL=2 Slice:P Poc:6   I:1    P:114  SKIP:8045 size=496 bytes
[image2 @ 000002460bc8dfc0] Opening 'D:/Peliprojektit/Projektit/Baltic_Loop/Krita_animaatiot/Koskenkyla/frame0065.png' for reading
[file @ 000002460d6ab0c0] Setting default whitelist 'file,crypto,data'
[AVIOContext @ 0000024615e83d00] Statistics: 1118142 bytes read, 0 seeks
[libx264 @ 000002460bc91500] frame=   4 QP=18.97 NAL=2 Slice:P Poc:8   I:0    P:82   SKIP:8078 size=410 bytes
[image2 @ 000002460bc8dfc0] Opening 'D:/Peliprojektit/Projektit/Baltic_Loop/Krita_animaatiot/Koskenkyla/frame0066.png' for reading
[file @ 000002460d6ab1c0] Setting default whitelist 'file,crypto,data'
[AVIOContext @ 0000024615e83d00] Statistics: 1118202 bytes read, 0 seeks
[libx264 @ 000002460bc91500] frame=   5 QP=18.70 NAL=2 Slice:P Poc:10  I:0    P:79   SKIP:8081 size=377 bytes
[image2 @ 000002460bc8dfc0] Opening 'D:/Peliprojektit/Projektit/Baltic_Loop/Krita_animaatiot/Koskenkyla/frame0067.png' for reading
[file @ 000002460d6aabc0] Setting default whitelist 'file,crypto,data'
[AVIOContext @ 0000024615e83d00] Statistics: 1118215 bytes read, 0 seeks
[libx264 @ 000002460bc91500] frame=   6 QP=18.91 NAL=2 Slice:P Poc:12  I:0    P:75   SKIP:8085 size=360 bytes
[image2 @ 000002460bc8dfc0] Opening 'D:/Peliprojektit/Projektit/Baltic_Loop/Krita_animaatiot/Koskenkyla/frame0068.png' for reading
[file @ 000002460d6ab0c0] Setting default whitelist 'file,crypto,data'
[AVIOContext @ 0000024615e83d00] Statistics: 1118209 bytes read, 0 seeks
[libx264 @ 000002460bc91500] frame=   7 QP=18.90 NAL=2 Slice:P Poc:14  I:0    P:56   SKIP:8104 size=269 bytes
[image2 @ 000002460bc8dfc0] Opening 'D:/Peliprojektit/Projektit/Baltic_Loop/Krita_animaatiot/Koskenkyla/frame0069.png' for reading
[file @ 000002460d6ab1c0] Setting default whitelist 'file,crypto,data'
[AVIOContext @ 0000024615e83d00] Statistics: 1118156 bytes read, 0 seeks
[libx264 @ 000002460bc91500] frame=   8 QP=18.91 NAL=2 Slice:P Poc:16  I:1    P:52   SKIP:8107 size=308 bytes
[image2 @ 000002460bc8dfc0] Opening 'D:/Peliprojektit/Projektit/Baltic_Loop/Krita_animaatiot/Koskenkyla/frame0070.png' for reading
[file @ 000002460d6aa9c0] Setting default whitelist 'file,crypto,data'
[AVIOContext @ 0000024615e83d00] Statistics: 1118096 bytes read, 0 seeks
[libx264 @ 000002460bc91500] frame=   9 QP=18.87 NAL=2 Slice:P Poc:18  I:0    P:54   SKIP:8106 size=272 bytes
[image2 @ 000002460bc8dfc0] Opening 'D:/Peliprojektit/Projektit/Baltic_Loop/Krita_animaatiot/Koskenkyla/frame0071.png' for reading
[file @ 000002460d6aa5c0] Setting default whitelist 'file,crypto,data'
[AVIOContext @ 0000024615e83d00] Statistics: 1118016 bytes read, 0 seeks
[libx264 @ 000002460bc91500] frame=  10 QP=18.64 NAL=2 Slice:P Poc:20  I:0    P:50   SKIP:8110 size=208 bytes
frame=   64 fps= 62 q=28.0 size=       0kB time=00:00:00.41 bitrate=   0.9kbits/s speed=0.401x    [image2 @ 000002460bc8dfc0] Opening 'D:/Peliprojektit/Projektit/Baltic_Loop/Krita_animaatiot/Koskenkyla/frame0072.png' for reading
[file @ 000002460d6ab5c0] Setting default whitelist 'file,crypto,data'
[AVIOContext @ 0000024615e83d00] Statistics: 1117940 bytes read, 0 seeks
[libx264 @ 000002460bc91500] frame=  11 QP=18.91 NAL=2 Slice:P Poc:22  I:1    P:50   SKIP:8109 size=220 bytes
[image2 @ 000002460bc8dfc0] Opening 'D:/Peliprojektit/Projektit/Baltic_Loop/Krita_animaatiot/Koskenkyla/frame0073.png' for reading
[file @ 000002460d6abbc0] Setting default whitelist 'file,crypto,data'
[AVIOContext @ 0000024615e83d00] Statistics: 1117882 bytes read, 0 seeks
[libx264 @ 000002460bc91500] frame=  12 QP=18.79 NAL=2 Slice:P Poc:24  I:1    P:49   SKIP:8110 size=234 bytes
[image2 @ 000002460bc8dfc0] Opening 'D:/Peliprojektit/Projektit/Baltic_Loop/Krita_animaatiot/Koskenkyla/frame0074.png' for reading
[file @ 000002460d6aa6c0] Setting default whitelist 'file,crypto,data'
[AVIOContext @ 0000024615e83d00] Statistics: 1117815 bytes read, 0 seeks
[libx264 @ 000002460bc91500] frame=  13 QP=18.84 NAL=2 Slice:P Poc:26  I:0    P:50   SKIP:8110 size=242 bytes
[image2 @ 000002460bc8dfc0] Opening 'D:/Peliprojektit/Projektit/Baltic_Loop/Krita_animaatiot/Koskenkyla/frame0075.png' for reading
[file @ 000002460d6ab1c0] Setting default whitelist 'file,crypto,data'
[AVIOContext @ 0000024615e83d00] Statistics: 1117757 bytes read, 0 seeks
[libx264 @ 000002460bc91500] frame=  14 QP=18.73 NAL=2 Slice:P Poc:28  I:0    P:49   SKIP:8111 size=228 bytes
[image2 @ 000002460bc8dfc0] Opening 'D:/Peliprojektit/Projektit/Baltic_Loop/Krita_animaatiot/Koskenkyla/frame0076.png' for reading
[file @ 000002460d6ab4c0] Setting default whitelist 'file,crypto,data'
[AVIOContext @ 0000024615e83d00] Statistics: 1117784 bytes read, 0 seeks
[libx264 @ 000002460bc91500] frame=  15 QP=18.71 NAL=2 Slice:P Poc:30  I:0    P:49   SKIP:8111 size=262 bytes
[image2 @ 000002460bc8dfc0] Opening 'D:/Peliprojektit/Projektit/Baltic_Loop/Krita_animaatiot/Koskenkyla/frame0077.png' for reading
[file @ 000002460d6ab7c0] Setting default whitelist 'file,crypto,data'
[AVIOContext @ 0000024615e83d00] Statistics: 1117698 bytes read, 0 seeks
[libx264 @ 000002460bc91500] frame=  16 QP=18.73 NAL=2 Slice:P Poc:32  I:0    P:49   SKIP:8111 size=277 bytes
[image2 @ 000002460bc8dfc0] Opening 'D:/Peliprojektit/Projektit/Baltic_Loop/Krita_animaatiot/Koskenkyla/frame0078.png' for reading
[file @ 000002460d6aa8c0] Setting default whitelist 'file,crypto,data'
[AVIOContext @ 0000024615e83d00] Statistics: 1117728 bytes read, 0 seeks
[libx264 @ 000002460bc91500] frame=  17 QP=18.80 NAL=2 Slice:P Poc:34  I:0    P:49   SKIP:8111 size=310 bytes
[image2 @ 000002460bc8dfc0] Opening 'D:/Peliprojektit/Projektit/Baltic_Loop/Krita_animaatiot/Koskenkyla/frame0079.png' for reading
[file @ 000002460d6aa8c0] Setting default whitelist 'file,crypto,data'
[AVIOContext @ 0000024615e83d00] Statistics: 1117746 bytes read, 0 seeks
[libx264 @ 000002460bc91500] frame=  18 QP=18.75 NAL=2 Slice:P Poc:36  I:1    P:49   SKIP:8110 size=352 bytes
[image2 @ 000002460bc8dfc0] Opening 'D:/Peliprojektit/Projektit/Baltic_Loop/Krita_animaatiot/Koskenkyla/frame0080.png' for reading
[file @ 000002460d6ac1c0] Setting default whitelist 'file,crypto,data'
[AVIOContext @ 0000024615e83d00] Statistics: 1117857 bytes read, 0 seeks
[libx264 @ 000002460bc91500] frame=  19 QP=18.59 NAL=2 Slice:P Poc:38  I:0    P:49   SKIP:8111 size=247 bytes
[image2 @ 000002460bc8dfc0] Opening 'D:/Peliprojektit/Projektit/Baltic_Loop/Krita_animaatiot/Koskenkyla/frame0081.png' for reading
[file @ 000002460d6ab4c0] Setting default whitelist 'file,crypto,data'
[AVIOContext @ 0000024615e83d00] Statistics: 1117786 bytes read, 0 seeks
[libx264 @ 000002460bc91500] frame=  20 QP=18.58 NAL=2 Slice:P Poc:40  I:0    P:50   SKIP:8110 size=321 bytes
[image2 @ 000002460bc8dfc0] Opening 'D:/Peliprojektit/Projektit/Baltic_Loop/Krita_animaatiot/Koskenkyla/frame0082.png' for reading
[file @ 000002460d6aa6c0] Setting default whitelist 'file,crypto,data'
[AVIOContext @ 0000024615e83d00] Statistics: 1117759 bytes read, 0 seeks
[libx264 @ 000002460bc91500] frame=  21 QP=18.52 NAL=2 Slice:P Poc:42  I:0    P:50   SKIP:8110 size=309 bytes
[image2 @ 000002460bc8dfc0] Opening 'D:/Peliprojektit/Projektit/Baltic_Loop/Krita_animaatiot/Koskenkyla/frame0083.png' for reading
[file @ 000002460d6ab2c0] Setting default whitelist 'file,crypto,data'
[AVIOContext @ 0000024615e83d00] Statistics: 1117688 bytes read, 0 seeks
[libx264 @ 000002460bc91500] frame=  22 QP=18.56 NAL=2 Slice:P Poc:44  I:0    P:51   SKIP:8109 size=287 bytes
[image2 @ 000002460bc8dfc0] Opening 'D:/Peliprojektit/Projektit/Baltic_Loop/Krita_animaatiot/Koskenkyla/frame0084.png' for reading
[file @ 000002460d6aa5c0] Setting default whitelist 'file,crypto,data'
[AVIOContext @ 0000024615e83d00] Statistics: 1117677 bytes read, 0 seeks
[libx264 @ 000002460bc91500] frame=  23 QP=18.64 NAL=2 Slice:P Poc:46  I:0    P:50   SKIP:8110 size=305 bytes
[image2 @ 000002460bc8dfc0] Opening 'D:/Peliprojektit/Projektit/Baltic_Loop/Krita_animaatiot/Koskenkyla/frame0085.png' for reading
[file @ 000002460d6ab0c0] Setting default whitelist 'file,crypto,data'
[AVIOContext @ 0000024615e83d00] Statistics: 1117757 bytes read, 0 seeks
[libx264 @ 000002460bc91500] frame=  24 QP=18.65 NAL=2 Slice:P Poc:48  I:1    P:49   SKIP:8110 size=363 bytes
[image2 @ 000002460bc8dfc0] Opening 'D:/Peliprojektit/Projektit/Baltic_Loop/Krita_animaatiot/Koskenkyla/frame0086.png' for reading
[file @ 000002460d6ab9c0] Setting default whitelist 'file,crypto,data'
[AVIOContext @ 0000024615e83d00] Statistics: 1117701 bytes read, 0 seeks
[libx264 @ 000002460bc91500] frame=  25 QP=18.59 NAL=2 Slice:P Poc:50  I:0    P:51   SKIP:8109 size=303 bytes
[image2 @ 000002460bc8dfc0] Opening 'D:/Peliprojektit/Projektit/Baltic_Loop/Krita_animaatiot/Koskenkyla/frame0087.png' for reading
[file @ 000002460d6aa8c0] Setting default whitelist 'file,crypto,data'
[AVIOContext @ 0000024615e83d00] Statistics: 1117609 bytes read, 0 seeks
[libx264 @ 000002460bc91500] frame=  26 QP=18.49 NAL=2 Slice:P Poc:52  I:0    P:51   SKIP:8109 size=326 bytes
[image2 @ 000002460bc8dfc0] Opening 'D:/Peliprojektit/Projektit/Baltic_Loop/Krita_animaatiot/Koskenkyla/frame0088.png' for reading
[file @ 000002460d6abbc0] Setting default whitelist 'file,crypto,data'
[AVIOContext @ 0000024615e83d00] Statistics: 1117642 bytes read, 0 seeks
[libx264 @ 000002460bc91500] frame=  27 QP=18.49 NAL=2 Slice:P Poc:54  I:0    P:51   SKIP:8109 size=312 bytes
[image2 @ 000002460bc8dfc0] Opening 'D:/Peliprojektit/Projektit/Baltic_Loop/Krita_animaatiot/Koskenkyla/frame0089.png' for reading
[file @ 000002460d6ab1c0] Setting default whitelist 'file,crypto,data'
[AVIOContext @ 0000024615e83d00] Statistics: 1117611 bytes read, 0 seeks
[libx264 @ 000002460bc91500] frame=  28 QP=18.60 NAL=2 Slice:P Poc:56  I:0    P:50   SKIP:8110 size=288 bytes
[image2 @ 000002460bc8dfc0] Opening 'D:/Peliprojektit/Projektit/Baltic_Loop/Krita_animaatiot/Koskenkyla/frame0090.png' for reading
[file @ 000002460d6aa5c0] Setting default whitelist 'file,crypto,data'
[AVIOContext @ 0000024615e83d00] Statistics: 1117613 bytes read, 0 seeks
[libx264 @ 000002460bc91500] frame=  29 QP=18.76 NAL=2 Slice:P Poc:58  I:0    P:50   SKIP:8110 size=386 bytes
[image2 @ 000002460bc8dfc0] Opening 'D:/Peliprojektit/Projektit/Baltic_Loop/Krita_animaatiot/Koskenkyla/frame0091.png' for reading
[file @ 000002460d6aa6c0] Setting default whitelist 'file,crypto,data'
[AVIOContext @ 0000024615e83d00] Statistics: 1117625 bytes read, 0 seeks
[libx264 @ 000002460bc91500] frame=  30 QP=19.00 NAL=2 Slice:P Poc:60  I:0    P:50   SKIP:8110 size=319 bytes
[image2 @ 000002460bc8dfc0] Opening 'D:/Peliprojektit/Projektit/Baltic_Loop/Krita_animaatiot/Koskenkyla/frame0092.png' for reading
[file @ 000002460d6ab0c0] Setting default whitelist 'file,crypto,data'
[AVIOContext @ 0000024615e83d00] Statistics: 1117635 bytes read, 0 seeks
[libx264 @ 000002460bc91500] frame=  31 QP=19.04 NAL=2 Slice:P Poc:62  I:0    P:51   SKIP:8109 size=280 bytes
[image2 @ 000002460bc8dfc0] Opening 'D:/Peliprojektit/Projektit/Baltic_Loop/Krita_animaatiot/Koskenkyla/frame0093.png' for reading
[file @ 000002460d6abfc0] Setting default whitelist 'file,crypto,data'
[AVIOContext @ 0000024615e83d00] Statistics: 1117616 bytes read, 0 seeks
[libx264 @ 000002460bc91500] frame=  32 QP=18.95 NAL=2 Slice:P Poc:64  I:0    P:50   SKIP:8110 size=332 bytes
[image2 @ 000002460bc8dfc0] Opening 'D:/Peliprojektit/Projektit/Baltic_Loop/Krita_animaatiot/Koskenkyla/frame0094.png' for reading
[file @ 000002460d6abec0] Setting default whitelist 'file,crypto,data'
[AVIOContext @ 0000024615e83d00] Statistics: 1117504 bytes read, 0 seeks
[libx264 @ 000002460bc91500] frame=  33 QP=18.73 NAL=2 Slice:P Poc:66  I:0    P:50   SKIP:8110 size=315 bytes
[image2 @ 000002460bc8dfc0] Opening 'D:/Peliprojektit/Projektit/Baltic_Loop/Krita_animaatiot/Koskenkyla/frame0095.png' for reading
[file @ 000002460d6ab5c0] Setting default whitelist 'file,crypto,data'
[AVIOContext @ 0000024615e83d00] Statistics: 1117603 bytes read, 0 seeks
[libx264 @ 000002460bc91500] frame=  34 QP=18.66 NAL=2 Slice:P Poc:68  I:0    P:50   SKIP:8110 size=343 bytes
frame=   88 fps= 57 q=28.0 size=       0kB time=00:00:01.41 bitrate=   0.3kbits/s speed=0.916x    [image2 @ 000002460bc8dfc0] Opening 'D:/Peliprojektit/Projektit/Baltic_Loop/Krita_animaatiot/Koskenkyla/frame0096.png' for reading
[file @ 000002460d6ab2c0] Setting default whitelist 'file,crypto,data'
[AVIOContext @ 0000024615e83d00] Statistics: 1117285 bytes read, 0 seeks
[libx264 @ 000002460bc91500] frame=  35 QP=18.73 NAL=2 Slice:P Poc:70  I:0    P:50   SKIP:8110 size=359 bytes
[image2 @ 000002460bc8dfc0] Opening 'D:/Peliprojektit/Projektit/Baltic_Loop/Krita_animaatiot/Koskenkyla/frame0097.png' for reading
[file @ 000002460d6abec0] Setting default whitelist 'file,crypto,data'
[AVIOContext @ 0000024615e83d00] Statistics: 1117149 bytes read, 0 seeks
[libx264 @ 000002460bc91500] frame=  36 QP=18.87 NAL=2 Slice:P Poc:72  I:0    P:51   SKIP:8109 size=316 bytes
[image2 @ 000002460bc8dfc0] Opening 'D:/Peliprojektit/Projektit/Baltic_Loop/Krita_animaatiot/Koskenkyla/frame0098.png' for reading
[file @ 000002460d6aa6c0] Setting default whitelist 'file,crypto,data'
[AVIOContext @ 0000024615e83d00] Statistics: 1117023 bytes read, 0 seeks
[libx264 @ 000002460bc91500] frame=  37 QP=18.85 NAL=2 Slice:P Poc:74  I:0    P:51   SKIP:8109 size=293 bytes
[image2 @ 000002460bc8dfc0] Opening 'D:/Peliprojektit/Projektit/Baltic_Loop/Krita_animaatiot/Koskenkyla/frame0099.png' for reading
[file @ 000002460d6aa6c0] Setting default whitelist 'file,crypto,data'
[AVIOContext @ 0000024615e83d00] Statistics: 1116924 bytes read, 0 seeks
[libx264 @ 000002460bc91500] frame=  38 QP=18.76 NAL=2 Slice:P Poc:76  I:0    P:51   SKIP:8109 size=389 bytes
[image2 @ 000002460bc8dfc0] Opening 'D:/Peliprojektit/Projektit/Baltic_Loop/Krita_animaatiot/Koskenkyla/frame0100.png' for reading
[file @ 000002460d6ab5c0] Setting default whitelist 'file,crypto,data'
[AVIOContext @ 0000024615e83d00] Statistics: 1116864 bytes read, 0 seeks
[libx264 @ 000002460bc91500] frame=  39 QP=18.63 NAL=2 Slice:P Poc:78  I:0    P:50   SKIP:8110 size=322 bytes
[image2 @ 000002460bc8dfc0] Opening 'D:/Peliprojektit/Projektit/Baltic_Loop/Krita_animaatiot/Koskenkyla/frame0101.png' for reading
[file @ 000002460d6abbc0] Setting default whitelist 'file,crypto,data'
[AVIOContext @ 0000024615e83d00] Statistics: 1116716 bytes read, 0 seeks
[libx264 @ 000002460bc91500] frame=  40 QP=18.65 NAL=2 Slice:P Poc:80  I:0    P:51   SKIP:8109 size=275 bytes
[image2 @ 000002460bc8dfc0] Opening 'D:/Peliprojektit/Projektit/Baltic_Loop/Krita_animaatiot/Koskenkyla/frame0102.png' for reading
[file @ 000002460d6abec0] Setting default whitelist 'file,crypto,data'
[AVIOContext @ 0000024615e83d00] Statistics: 1116639 bytes read, 0 seeks
[libx264 @ 000002460bc91500] frame=  41 QP=18.53 NAL=2 Slice:P Poc:82  I:0    P:51   SKIP:8109 size=280 bytes
[image2 @ 000002460bc8dfc0] Opening 'D:/Peliprojektit/Projektit/Baltic_Loop/Krita_animaatiot/Koskenkyla/frame0103.png' for reading
[file @ 000002460d6abac0] Setting default whitelist 'file,crypto,data'
[AVIOContext @ 0000024615e83d00] Statistics: 1116591 bytes read, 0 seeks
[libx264 @ 000002460bc91500] frame=  42 QP=18.56 NAL=2 Slice:P Poc:84  I:0    P:60   SKIP:8100 size=382 bytes
[image2 @ 000002460bc8dfc0] Opening 'D:/Peliprojektit/Projektit/Baltic_Loop/Krita_animaatiot/Koskenkyla/frame0104.png' for reading
[file @ 000002460d6ab0c0] Setting default whitelist 'file,crypto,data'
[AVIOContext @ 0000024615e83d00] Statistics: 1116569 bytes read, 0 seeks
[libx264 @ 000002460bc91500] frame=  43 QP=18.56 NAL=2 Slice:P Poc:86  I:0    P:54   SKIP:8106 size=353 bytes
[image2 @ 000002460bc8dfc0] Opening 'D:/Peliprojektit/Projektit/Baltic_Loop/Krita_animaatiot/Koskenkyla/frame0105.png' for reading
[file @ 000002460d6aa9c0] Setting default whitelist 'file,crypto,data'
[AVIOContext @ 0000024615e83d00] Statistics: 1116661 bytes read, 0 seeks
[libx264 @ 000002460bc91500] frame=  44 QP=18.63 NAL=2 Slice:P Poc:88  I:0    P:52   SKIP:8108 size=328 bytes
[image2 @ 000002460bc8dfc0] Opening 'D:/Peliprojektit/Projektit/Baltic_Loop/Krita_animaatiot/Koskenkyla/frame0106.png' for reading
[file @ 000002460d6ab3c0] Setting default whitelist 'file,crypto,data'
[AVIOContext @ 0000024615e83d00] Statistics: 1116605 bytes read, 0 seeks
[libx264 @ 000002460bc91500] frame=  45 QP=18.68 NAL=2 Slice:P Poc:90  I:0    P:50   SKIP:8110 size=261 bytes
[image2 @ 000002460bc8dfc0] Opening 'D:/Peliprojektit/Projektit/Baltic_Loop/Krita_animaatiot/Koskenkyla/frame0107.png' for reading
[file @ 000002460d6abec0] Setting default whitelist 'file,crypto,data'
[AVIOContext @ 0000024615e83d00] Statistics: 1116391 bytes read, 0 seeks
[libx264 @ 000002460bc91500] frame=  46 QP=18.37 NAL=2 Slice:P Poc:92  I:0    P:52   SKIP:8108 size=240 bytes
[image2 @ 000002460bc8dfc0] Opening 'D:/Peliprojektit/Projektit/Baltic_Loop/Krita_animaatiot/Koskenkyla/frame0108.png' for reading
[file @ 000002460d6aaec0] Setting default whitelist 'file,crypto,data'
[AVIOContext @ 0000024615e83d00] Statistics: 1116280 bytes read, 0 seeks
[libx264 @ 000002460bc91500] frame=  47 QP=18.54 NAL=2 Slice:P Poc:94  I:0    P:50   SKIP:8110 size=257 bytes
[image2 @ 000002460bc8dfc0] Opening 'D:/Peliprojektit/Projektit/Baltic_Loop/Krita_animaatiot/Koskenkyla/frame0109.png' for reading
[file @ 000002460d6ab4c0] Setting default whitelist 'file,crypto,data'
[AVIOContext @ 0000024615e83d00] Statistics: 1116210 bytes read, 0 seeks
[libx264 @ 000002460bc91500] frame=  48 QP=18.46 NAL=2 Slice:P Poc:96  I:0    P:51   SKIP:8109 size=273 bytes
[image2 @ 000002460bc8dfc0] Opening 'D:/Peliprojektit/Projektit/Baltic_Loop/Krita_animaatiot/Koskenkyla/frame0110.png' for reading
[file @ 000002460d6abec0] Setting default whitelist 'file,crypto,data'
[AVIOContext @ 0000024615e83d00] Statistics: 1115991 bytes read, 0 seeks
[libx264 @ 000002460bc91500] frame=  49 QP=18.92 NAL=2 Slice:P Poc:98  I:0    P:55   SKIP:8105 size=337 bytes
[image2 @ 000002460bc8dfc0] Opening 'D:/Peliprojektit/Projektit/Baltic_Loop/Krita_animaatiot/Koskenkyla/frame0111.png' for reading
[file @ 000002460d6aa8c0] Setting default whitelist 'file,crypto,data'
[AVIOContext @ 0000024615e83d00] Statistics: 1115904 bytes read, 0 seeks
[libx264 @ 000002460bc91500] frame=  50 QP=19.06 NAL=2 Slice:P Poc:100 I:0    P:60   SKIP:8100 size=297 bytes
[image2 @ 000002460bc8dfc0] Opening 'D:/Peliprojektit/Projektit/Baltic_Loop/Krita_animaatiot/Koskenkyla/frame0112.png' for reading
[file @ 000002460d6ab6c0] Setting default whitelist 'file,crypto,data'
[AVIOContext @ 0000024615e83d00] Statistics: 1116072 bytes read, 0 seeks
[libx264 @ 000002460bc91500] frame=  51 QP=19.08 NAL=2 Slice:P Poc:102 I:0    P:57   SKIP:8103 size=307 bytes
[image2 @ 000002460bc8dfc0] Opening 'D:/Peliprojektit/Projektit/Baltic_Loop/Krita_animaatiot/Koskenkyla/frame0113.png' for reading
[file @ 000002460d6abec0] Setting default whitelist 'file,crypto,data'
[AVIOContext @ 0000024615e83d00] Statistics: 1116003 bytes read, 0 seeks
[libx264 @ 000002460bc91500] frame=  52 QP=18.87 NAL=2 Slice:P Poc:104 I:0    P:57   SKIP:8103 size=359 bytes
[image2 @ 000002460bc8dfc0] Opening 'D:/Peliprojektit/Projektit/Baltic_Loop/Krita_animaatiot/Koskenkyla/frame0114.png' for reading
[file @ 000002460d6ab5c0] Setting default whitelist 'file,crypto,data'
[AVIOContext @ 0000024615e83d00] Statistics: 1115851 bytes read, 0 seeks
[libx264 @ 000002460bc91500] frame=  53 QP=18.59 NAL=2 Slice:P Poc:106 I:0    P:55   SKIP:8105 size=332 bytes
[image2 @ 000002460bc8dfc0] Opening 'D:/Peliprojektit/Projektit/Baltic_Loop/Krita_animaatiot/Koskenkyla/frame0115.png' for reading
[file @ 000002460d6ab4c0] Setting default whitelist 'file,crypto,data'
[AVIOContext @ 0000024615e83d00] Statistics: 1115818 bytes read, 0 seeks
[libx264 @ 000002460bc91500] frame=  54 QP=18.56 NAL=2 Slice:P Poc:108 I:0    P:54   SKIP:8106 size=320 bytes
[image2 @ 000002460bc8dfc0] Opening 'D:/Peliprojektit/Projektit/Baltic_Loop/Krita_animaatiot/Koskenkyla/frame0116.png' for reading
[file @ 000002460d6aa6c0] Setting default whitelist 'file,crypto,data'
[AVIOContext @ 0000024615e83d00] Statistics: 1115859 bytes read, 0 seeks
[libx264 @ 000002460bc91500] frame=  55 QP=18.50 NAL=2 Slice:P Poc:110 I:0    P:52   SKIP:8108 size=265 bytes
[image2 @ 000002460bc8dfc0] Opening 'D:/Peliprojektit/Projektit/Baltic_Loop/Krita_animaatiot/Koskenkyla/frame0117.png' for reading
[file @ 000002460d6abcc0] Setting default whitelist 'file,crypto,data'
[AVIOContext @ 0000024615e83d00] Statistics: 1115880 bytes read, 0 seeks
[libx264 @ 000002460bc91500] frame=  56 QP=18.60 NAL=2 Slice:P Poc:112 I:0    P:50   SKIP:8110 size=249 bytes
[image2 @ 000002460bc8dfc0] Opening 'D:/Peliprojektit/Projektit/Baltic_Loop/Krita_animaatiot/Koskenkyla/frame0118.png' for reading
[file @ 000002460d6abec0] Setting default whitelist 'file,crypto,data'
[AVIOContext @ 0000024615f92a40] Statistics: 1115799 bytes read, 0 seeks
[libx264 @ 000002460bc91500] frame=  57 QP=18.76 NAL=2 Slice:P Poc:114 I:1    P:57   SKIP:8102 size=299 bytes
[image2 @ 000002460bc8dfc0] Opening 'D:/Peliprojektit/Projektit/Baltic_Loop/Krita_animaatiot/Koskenkyla/frame0119.png' for reading
[file @ 000002460d6aa6c0] Setting default whitelist 'file,crypto,data'
[AVIOContext @ 0000024615f928c0] Statistics: 1115896 bytes read, 0 seeks
[libx264 @ 000002460bc91500] frame=  58 QP=18.81 NAL=2 Slice:P Poc:116 I:1    P:54   SKIP:8105 size=309 bytes
frame=  112 fps= 55 q=28.0 size=       0kB time=00:00:02.41 bitrate=   0.2kbits/s speed=1.18x    [image2 @ 000002460bc8dfc0] Opening 'D:/Peliprojektit/Projektit/Baltic_Loop/Krita_animaatiot/Koskenkyla/frame0120.png' for reading
[file @ 000002460d6ab6c0] Setting default whitelist 'file,crypto,data'
[AVIOContext @ 0000024615f928c0] Statistics: 1115817 bytes read, 0 seeks
[libx264 @ 000002460bc91500] frame=  59 QP=19.05 NAL=2 Slice:P Poc:118 I:1    P:52   SKIP:8107 size=331 bytes
[image2 @ 000002460bc8dfc0] Opening 'D:/Peliprojektit/Projektit/Baltic_Loop/Krita_animaatiot/Koskenkyla/frame0121.png' for reading
[file @ 000002460d6abec0] Setting default whitelist 'file,crypto,data'
[AVIOContext @ 0000024615f92640] Statistics: 1115842 bytes read, 0 seeks
[libx264 @ 000002460bc91500] frame=  60 QP=19.19 NAL=2 Slice:P Poc:120 I:0    P:52   SKIP:8108 size=333 bytes
[image2 @ 000002460bc8dfc0] Opening 'D:/Peliprojektit/Projektit/Baltic_Loop/Krita_animaatiot/Koskenkyla/frame0122.png' for reading
[file @ 000002460d6ab1c0] Setting default whitelist 'file,crypto,data'
[AVIOContext @ 0000024615f92500] Statistics: 1115755 bytes read, 0 seeks
[libx264 @ 000002460bc91500] frame=  61 QP=18.94 NAL=2 Slice:P Poc:122 I:2    P:49   SKIP:8109 size=378 bytes
[image2 @ 000002460bc8dfc0] Opening 'D:/Peliprojektit/Projektit/Baltic_Loop/Krita_animaatiot/Koskenkyla/frame0123.png' for reading
[file @ 000002460d6ab6c0] Setting default whitelist 'file,crypto,data'
[AVIOContext @ 0000024615f928c0] Statistics: 1115691 bytes read, 0 seeks
[libx264 @ 000002460bc91500] frame=  62 QP=18.79 NAL=2 Slice:P Poc:124 I:1    P:51   SKIP:8108 size=422 bytes
[image2 @ 000002460bc8dfc0] Opening 'D:/Peliprojektit/Projektit/Baltic_Loop/Krita_animaatiot/Koskenkyla/frame0124.png' for reading
[file @ 000002460d6ac1c0] Setting default whitelist 'file,crypto,data'
[AVIOContext @ 0000024615f92e00] Statistics: 1115621 bytes read, 0 seeks
[libx264 @ 000002460bc91500] frame=  63 QP=19.20 NAL=2 Slice:P Poc:126 I:1    P:51   SKIP:8108 size=334 bytes
[image2 @ 000002460bc8dfc0] Opening 'D:/Peliprojektit/Projektit/Baltic_Loop/Krita_animaatiot/Koskenkyla/frame0125.png' for reading
[file @ 000002460d6aa6c0] Setting default whitelist 'file,crypto,data'
[AVIOContext @ 0000024615f928c0] Statistics: 1115728 bytes read, 0 seeks
[libx264 @ 000002460bc91500] frame=  64 QP=19.21 NAL=2 Slice:P Poc:128 I:0    P:51   SKIP:8109 size=272 bytes
[image2 @ 000002460bc8dfc0] Opening 'D:/Peliprojektit/Projektit/Baltic_Loop/Krita_animaatiot/Koskenkyla/frame0126.png' for reading
[file @ 000002460d6ab6c0] Setting default whitelist 'file,crypto,data'
[AVIOContext @ 0000024615f928c0] Statistics: 1115804 bytes read, 0 seeks
[libx264 @ 000002460bc91500] frame=  65 QP=19.27 NAL=2 Slice:P Poc:130 I:0    P:51   SKIP:8109 size=215 bytes
[image2 @ 000002460bc8dfc0] Opening 'D:/Peliprojektit/Projektit/Baltic_Loop/Krita_animaatiot/Koskenkyla/frame0127.png' for reading
[file @ 000002460d6abec0] Setting default whitelist 'file,crypto,data'
[AVIOContext @ 0000024615f92640] Statistics: 1115684 bytes read, 0 seeks
[libx264 @ 000002460bc91500] frame=  66 QP=19.22 NAL=2 Slice:P Poc:132 I:0    P:51   SKIP:8109 size=225 bytes
[image2 @ 000002460bc8dfc0] Opening 'D:/Peliprojektit/Projektit/Baltic_Loop/Krita_animaatiot/Koskenkyla/frame0128.png' for reading
[file @ 000002460d6ab9c0] Setting default whitelist 'file,crypto,data'
[AVIOContext @ 0000024615f92a40] Statistics: 1115673 bytes read, 0 seeks
[libx264 @ 000002460bc91500] frame=  67 QP=19.22 NAL=2 Slice:P Poc:134 I:1    P:51   SKIP:8108 size=245 bytes
[libx264 @ 000002460bc91500] frame=  68 QP=18.79 NAL=2 Slice:P Poc:136 I:0    P:51   SKIP:8109 size=232 bytes
[libx264 @ 000002460bc91500] frame=  69 QP=19.26 NAL=2 Slice:P Poc:138 I:1    P:52   SKIP:8107 size=263 bytes
[libx264 @ 000002460bc91500] frame=  70 QP=19.25 NAL=2 Slice:P Poc:140 I:0    P:51   SKIP:8109 size=215 bytes
[libx264 @ 000002460bc91500] frame=  71 QP=19.20 NAL=2 Slice:P Poc:142 I:0    P:51   SKIP:8109 size=266 bytes
[libx264 @ 000002460bc91500] frame=  72 QP=19.24 NAL=2 Slice:P Poc:144 I:0    P:53   SKIP:8107 size=267 bytes
[libx264 @ 000002460bc91500] frame=  73 QP=19.01 NAL=2 Slice:P Poc:146 I:0    P:53   SKIP:8107 size=305 bytes
[libx264 @ 000002460bc91500] frame=  74 QP=18.71 NAL=2 Slice:P Poc:148 I:0    P:52   SKIP:8108 size=305 bytes
[libx264 @ 000002460bc91500] frame=  75 QP=18.68 NAL=2 Slice:P Poc:150 I:0    P:53   SKIP:8107 size=360 bytes
[out_0_0 @ 000002460bcecc00] EOF on sink link out_0_0:default.
No more output streams to write to, finishing.
[libx264 @ 000002460bc91500] frame=  76 QP=18.42 NAL=2 Slice:P Poc:152 I:0    P:49   SKIP:8111 size=307 bytes
[libx264 @ 000002460bc91500] frame=  77 QP=18.52 NAL=2 Slice:P Poc:154 I:0    P:58   SKIP:8102 size=317 bytes
[libx264 @ 000002460bc91500] frame=  78 QP=18.54 NAL=2 Slice:P Poc:156 I:0    P:59   SKIP:8101 size=280 bytes
[libx264 @ 000002460bc91500] frame=  79 QP=18.54 NAL=2 Slice:P Poc:158 I:1    P:54   SKIP:8105 size=247 bytes
[libx264 @ 000002460bc91500] frame=  80 QP=18.54 NAL=2 Slice:P Poc:160 I:1    P:55   SKIP:8104 size=278 bytes
[libx264 @ 000002460bc91500] frame=  81 QP=18.54 NAL=2 Slice:P Poc:162 I:1    P:53   SKIP:8106 size=301 bytes
[libx264 @ 000002460bc91500] frame=  82 QP=18.54 NAL=2 Slice:P Poc:164 I:0    P:54   SKIP:8106 size=309 bytes
[libx264 @ 000002460bc91500] frame=  83 QP=18.53 NAL=2 Slice:P Poc:166 I:1    P:53   SKIP:8106 size=331 bytes
[libx264 @ 000002460bc91500] frame=  84 QP=18.54 NAL=2 Slice:P Poc:168 I:0    P:54   SKIP:8106 size=325 bytes
[libx264 @ 000002460bc91500] frame=  85 QP=18.14 NAL=2 Slice:P Poc:170 I:1    P:53   SKIP:8106 size=348 bytes
[libx264 @ 000002460bc91500] frame=  86 QP=18.52 NAL=2 Slice:P Poc:172 I:2    P:61   SKIP:8097 size=412 bytes
[libx264 @ 000002460bc91500] frame=  87 QP=18.54 NAL=2 Slice:P Poc:174 I:1    P:55   SKIP:8104 size=392 bytes
[libx264 @ 000002460bc91500] frame=  88 QP=18.54 NAL=2 Slice:P Poc:176 I:0    P:55   SKIP:8105 size=341 bytes
[libx264 @ 000002460bc91500] frame=  89 QP=18.90 NAL=2 Slice:P Poc:178 I:1    P:65   SKIP:8094 size=355 bytes
[libx264 @ 000002460bc91500] frame=  90 QP=18.53 NAL=2 Slice:P Poc:180 I:1    P:54   SKIP:8105 size=311 bytes
[libx264 @ 000002460bc91500] frame=  91 QP=18.67 NAL=2 Slice:P Poc:182 I:1    P:48   SKIP:8111 size=269 bytes
[libx264 @ 000002460bc91500] frame=  92 QP=18.56 NAL=2 Slice:P Poc:184 I:0    P:58   SKIP:8102 size=339 bytes
[libx264 @ 000002460bc91500] frame=  93 QP=18.90 NAL=2 Slice:P Poc:186 I:0    P:48   SKIP:8112 size=286 bytes
[libx264 @ 000002460bc91500] frame=  94 QP=18.67 NAL=2 Slice:P Poc:188 I:0    P:52   SKIP:8108 size=270 bytes
[libx264 @ 000002460bc91500] frame=  95 QP=18.99 NAL=2 Slice:P Poc:190 I:0    P:46   SKIP:8114 size=309 bytes
[libx264 @ 000002460bc91500] frame=  96 QP=18.46 NAL=2 Slice:P Poc:192 I:1    P:36   SKIP:8123 size=314 bytes
[libx264 @ 000002460bc91500] frame=  97 QP=18.44 NAL=2 Slice:P Poc:194 I:0    P:31   SKIP:8129 size=236 bytes
[libx264 @ 000002460bc91500] frame=  98 QP=18.59 NAL=2 Slice:P Poc:196 I:0    P:30   SKIP:8130 size=259 bytes
[libx264 @ 000002460bc91500] frame=  99 QP=19.18 NAL=2 Slice:P Poc:198 I:0    P:30   SKIP:8130 size=303 bytes
[libx264 @ 000002460bc91500] frame= 100 QP=19.55 NAL=2 Slice:P Poc:200 I:0    P:29   SKIP:8131 size=227 bytes
[libx264 @ 000002460bc91500] frame= 101 QP=20.15 NAL=2 Slice:P Poc:202 I:1    P:33   SKIP:8126 size=262 bytes
[libx264 @ 000002460bc91500] frame= 102 QP=19.71 NAL=2 Slice:P Poc:204 I:0    P:30   SKIP:8130 size=272 bytes
[libx264 @ 000002460bc91500] frame= 103 QP=19.69 NAL=2 Slice:P Poc:206 I:0    P:27   SKIP:8133 size=201 bytes
[libx264 @ 000002460bc91500] frame= 104 QP=19.66 NAL=2 Slice:P Poc:208 I:0    P:25   SKIP:8135 size=190 bytes
[libx264 @ 000002460bc91500] frame= 105 QP=19.59 NAL=2 Slice:P Poc:210 I:0    P:24   SKIP:8136 size=201 bytes
[libx264 @ 000002460bc91500] frame= 106 QP=19.56 NAL=2 Slice:P Poc:212 I:0    P:23   SKIP:8137 size=202 bytes
[libx264 @ 000002460bc91500] frame= 107 QP=19.75 NAL=2 Slice:P Poc:214 I:1    P:24   SKIP:8135 size=310 bytes
[libx264 @ 000002460bc91500] frame= 108 QP=19.69 NAL=2 Slice:P Poc:216 I:0    P:22   SKIP:8138 size=212 bytes
[libx264 @ 000002460bc91500] frame= 109 QP=19.70 NAL=2 Slice:P Poc:218 I:0    P:22   SKIP:8138 size=167 bytes
[libx264 @ 000002460bc91500] frame= 110 QP=20.23 NAL=2 Slice:P Poc:220 I:0    P:10   SKIP:8150 size=106 bytes
[libx264 @ 000002460bc91500] frame= 111 QP=20.15 NAL=2 Slice:P Poc:222 I:0    P:10   SKIP:8150 size=166 bytes
[libx264 @ 000002460bc91500] frame= 112 QP=20.31 NAL=2 Slice:P Poc:224 I:0    P:6    SKIP:8154 size=162 bytes
[libx264 @ 000002460bc91500] frame= 113 QP=20.34 NAL=2 Slice:P Poc:226 I:0    P:6    SKIP:8154 size=118 bytes
[libx264 @ 000002460bc91500] frame= 114 QP=20.43 NAL=2 Slice:P Poc:228 I:0    P:7    SKIP:8153 size=115 bytes
[libx264 @ 000002460bc91500] frame= 115 QP=23.90 NAL=2 Slice:P Poc:230 I:0    P:7    SKIP:8153 size=97 bytes
[libx264 @ 000002460bc91500] frame= 116 QP=20.30 NAL=2 Slice:P Poc:232 I:0    P:7    SKIP:8153 size=146 bytes
[libx264 @ 000002460bc91500] frame= 117 QP=23.10 NAL=2 Slice:P Poc:234 I:0    P:6    SKIP:8154 size=131 bytes
[libx264 @ 000002460bc91500] frame= 118 QP=23.66 NAL=2 Slice:P Poc:236 I:0    P:2    SKIP:8158 size=48 bytes
[libx264 @ 000002460bc91500] frame= 119 QP=22.53 NAL=2 Slice:P Poc:238 I:0    P:4    SKIP:8156 size=64 bytes
[libx264 @ 000002460bc91500] frame= 120 QP=24.65 NAL=2 Slice:P Poc:240 I:0    P:5    SKIP:8155 size=78 bytes
[libx264 @ 000002460bc91500] frame= 121 QP=24.64 NAL=2 Slice:P Poc:242 I:0    P:4    SKIP:8156 size=137 bytes
[libx264 @ 000002460bc91500] frame= 122 QP=25.20 NAL=2 Slice:P Poc:244 I:0    P:4    SKIP:8156 size=94 bytes
[libx264 @ 000002460bc91500] frame= 123 QP=25.90 NAL=2 Slice:P Poc:246 I:0    P:5    SKIP:8155 size=113 bytes
[libx264 @ 000002460bc91500] frame= 124 QP=25.86 NAL=2 Slice:P Poc:248 I:0    P:5    SKIP:8155 size=142 bytes
[libx264 @ 000002460bc91500] frame= 125 QP=26.56 NAL=2 Slice:P Poc:250 I:0    P:5    SKIP:8155 size=101 bytes
[libx264 @ 000002460bc91500] frame= 126 QP=27.24 NAL=2 Slice:P Poc:252 I:0    P:5    SKIP:8155 size=113 bytes
[libx264 @ 000002460bc91500] frame= 127 QP=27.12 NAL=2 Slice:P Poc:254 I:0    P:4    SKIP:8156 size=43 bytes
[libx264 @ 000002460bc91500] frame= 128 QP=28.48 NAL=2 Slice:P Poc:256 I:0    P:3    SKIP:8157 size=28 bytes
Not writing 'clli' atom. No content light level info.
Not writing 'mdcv' atom. Missing mastering metadata.
frame=  129 fps= 48 q=-1.0 Lsize=     260kB time=00:00:05.33 bitrate= 399.3kbits/s speed=   2x    
[AVIOContext @ 000002460bc8de00] Statistics: 0 seeks, 6 writeouts
video:259kB audio:0kB subtitle:0kB other streams:0kB global headers:0kB muxing overhead: 0.518111%
Input file #0 (D:/Peliprojektit/Projektit/Baltic_Loop/Krita_animaatiot/Koskenkyla/frame%04d.png):
  Input stream #0:0 (video): 129 packets read (144283541 bytes); 129 frames decoded; 
  Total: 129 packets (144283541 bytes) demuxed
Output file #0 (D:/Peliprojektit/Projektit/Baltic_Loop/Krita_animaatiot/Koskenkyla/Koskenkyla.mp4):
  Output stream #0:0 (video): 129 frames encoded; 129 packets muxed (264808 bytes); 
  Total: 129 packets (264808 bytes) muxed
129 frames successfully decoded, 0 decoding errors
[AVIOContext @ 000002460bc92740] Statistics: 2 seeks, 5 writeouts
[libx264 @ 000002460bc91500] frame I:1     Avg QP:15.47  size:228090
[libx264 @ 000002460bc91500] frame P:128   Avg QP:19.56  size:   282
[libx264 @ 000002460bc91500] mb I  I16..4: 37.7%  0.0% 62.3%
[libx264 @ 000002460bc91500] mb P  I16..4:  0.0%  0.0%  0.0%  P16..4:  0.5%  0.0%  0.0%  0.0%  0.0%    skip:99.4%
[libx264 @ 000002460bc91500] coded y,uvDC,uvAC intra: 42.2% 44.5% 42.1% inter: 0.0% 0.5% 0.0%
[libx264 @ 000002460bc91500] i16 v,h,dc,p: 82% 14%  4%  0%
[libx264 @ 000002460bc91500] i4 v,h,dc,ddl,ddr,vr,hd,vl,hu: 32% 22% 18%  4%  5%  5%  7%  4%  3%
[libx264 @ 000002460bc91500] i8c dc,h,v,p: 68% 17% 12%  3%
[libx264 @ 000002460bc91500] ref P L0: 95.1%  3.4%  1.5%
[libx264 @ 000002460bc91500] kb/s:393.20
